# xmcd
#
# Track frame offsets:
#	150
#	23261
#	46048
#	67149
#	94837
#	110930
#	142381
#	153688
#	178616
#	185360
#
# Disc length: 2736 seconds
#
# Revision: 2
# Processed by: cddbd v1.5.1PL2 Copyright (c) Steve Scherf et al.
# Submitted via: EasyCDDAExtractor 8.0.2.1
#
DISCID=8d0aae0a
DTITLE=Dio - City Hall Newcastle 03-12-87 Disc 1
DYEAR=1987
DGENRE=Hard Rock
TTITLE0=Stand Up And Shout
TTITLE1=Dream Evil
TTITLE2=Neon Knights
TTITLE3=Sunset Superman
TTITLE4=Naked In The Rain
TTITLE5=Guitar Solo
TTITLE6=Naked In The Rain Reprise
TTITLE7=The Last In Line
TTITLE8=Holy Diver
TTITLE9=Drum Solo
EXTD=
EXTT0=
EXTT1=
EXTT2=
EXTT3=
EXTT4=
EXTT5=
EXTT6=
EXTT7=
EXTT8=
EXTT9=
PLAYORDER=
